HIERARCHY
ROOT root
{
	OFFSET	0	13.1	24.9
	CHANNELS 6  Xposition Yposition Zposition Xrotation Yrotation Zrotation
	JOINT spine_1
	{
		OFFSET	0	9.99999	0
		CHANNELS 3  Xrotation Yrotation Zrotation
		JOINT spine_2
		{
			OFFSET	0	112	-10
			CHANNELS 3  Xrotation Yrotation Zrotation
			JOINT spine_3
			{
				OFFSET	0	206.5	19.3
				CHANNELS 3  Xrotation Yrotation Zrotation
				JOINT spine_4
				{
					OFFSET	0	110.4	14.6
					CHANNELS 3  Xrotation Yrotation Zrotation
					JOINT neck_1
					{
						OFFSET	0	71.8	-50.3
						CHANNELS 3  Xrotation Yrotation Zrotation
						JOINT neck_2
						{
							OFFSET	0	86.2	-25.8
							CHANNELS 3  Xrotation Yrotation Zrotation
							JOINT head_ee
							{
								OFFSET	0	179.8	-8.7
								CHANNELS 3  Xrotation Yrotation Zrotation
								End Site
								{
									OFFSET	1	0	0
								}
							}
						}
					}
					JOINT left_clavicle
					{
						OFFSET	-43.2	22.4	-70.8
						CHANNELS 3  Xrotation Yrotation Zrotation
						JOINT left_shoulder
						{
							OFFSET	-93.9	-5.79999	48.7
							CHANNELS 3  Xrotation Yrotation Zrotation
							JOINT left_elbow
							{
								OFFSET	-291.4	-30.8	15.2
								CHANNELS 3  Xrotation Yrotation Zrotation
								JOINT left_lowarm_twist
								{
									OFFSET	-110.7	-3.89999	13.6
									CHANNELS 3  Xrotation Yrotation Zrotation
									JOINT left_hand
									{
										OFFSET	-110.7	-3.89999	13.6
										CHANNELS 3  Xrotation Yrotation Zrotation
										JOINT left_ee
										{
											OFFSET	-80.8	-5.10001	12.1
											CHANNELS 3  Xrotation Yrotation Zrotation
											End Site
											{
												OFFSET	1	0	0
											}
										}
									}
								}
							}
						}
					}
					JOINT right_clavicle
					{
						OFFSET	43.2	22.4	-70.8
						CHANNELS 3  Xrotation Yrotation Zrotation
						JOINT right_shoulder
						{
							OFFSET	93.9	-5.79999	48.7
							CHANNELS 3  Xrotation Yrotation Zrotation
							JOINT right_elbow
							{
								OFFSET	291.4	-30.8	15.2
								CHANNELS 3  Xrotation Yrotation Zrotation
								JOINT right_lowarm_twist
								{
									OFFSET	110.7	-3.89999	13.6
									CHANNELS 3  Xrotation Yrotation Zrotation
									JOINT right_hand
									{
										OFFSET	110.7	-3.89999	13.6
										CHANNELS 3  Xrotation Yrotation Zrotation
										JOINT right_ee
										{
											OFFSET	80.8	-5.10001	12.1
											CHANNELS 3  Xrotation Yrotation Zrotation
											End Site
											{
												OFFSET	1	0	0
											}
										}
									}
								}
							}
						}
					}
				}
			}
		}
	}
	JOINT left_hip
	{
		OFFSET	-82.8	-127.5	0.300001
		CHANNELS 3  Xrotation Yrotation Zrotation
		JOINT left_knee
		{
			OFFSET	-28.2	-396.7	2.2
			CHANNELS 3  Xrotation Yrotation Zrotation
			JOINT left_ankle
			{
				OFFSET	-11.7	-411.3	35.4
				CHANNELS 3  Xrotation Yrotation Zrotation
				JOINT left_toes
				{
					OFFSET	0	-60	-88.6
					CHANNELS 3  Xrotation Yrotation Zrotation
					JOINT left_foot_ee
					{
						OFFSET	-22.5	-16.5	-42.2
						CHANNELS 3  Xrotation Yrotation Zrotation
						End Site
						{
							OFFSET	1	0	0
						}
					}
				}
			}
		}
	}
	JOINT right_hip
	{
		OFFSET	82.8	-127.5	0.300001
		CHANNELS 3  Xrotation Yrotation Zrotation
		JOINT right_knee
		{
			OFFSET	28.2	-396.7	2.2
			CHANNELS 3  Xrotation Yrotation Zrotation
			JOINT right_ankle
			{
				OFFSET	11.7	-411.3	35.4
				CHANNELS 3  Xrotation Yrotation Zrotation
				JOINT right_toes
				{
					OFFSET	0	-60	-88.6
					CHANNELS 3  Xrotation Yrotation Zrotation
					JOINT right_foot_ee
					{
						OFFSET	22.5	-16.5	-42.2
						CHANNELS 3  Xrotation Yrotation Zrotation
						End Site
						{
							OFFSET	1	0	0
						}
					}
				}
			}
		}
	}
}
MOTION
Frames: 13
Frame Time: 0.02
1372.05 701.618 -1475.22 15.9188346774 67.8509102639 -16.4164587628 -5.0193 -0.256092 0.325293 -5.01928 -0.276273 0.308338 -5.02086 -0.354925 0.213136 -5.02078 -0.31681 0.266515 8.04564 -5.21482 -1.22286 8.11874 -7.60428 -1.56307 -0.0 0.0 -0.0 7.81408 -9.67233 15.1269 76.9379 67.8126 30.2407 0.201659 -5.70482 0.0100476 50.6667 -1.01695 -6.18384 -2.26269 28.6843 -1.01903 -0.0 0.0 -0.0 8.17733 27.9992 -14.5999 -3.55897 3.83986 -62.384 0.403771 11.311 -0.0399853 60.3719 1.80715 7.14213 -1.3927 6.15075 12.0927 0.0 0.0 0.0 -16.8912 -8.35978 0.909447 -13.437 0.316086 2.03315 29.1317 -2.83976 -3.8423 5.97182 -0.0 -0.0 -0.0 0.0 -0.0 20.8564 -1.24115 8.16098 -10.34 -0.285706 -1.55899 -11.6165 -5.67215 -1.73779 22.4001 -0.0 -0.0 0.0 0.0 0.0 
1363.45008222 702.52 -1491.21331105 17.8505129209 69.9207291248 -18.5614494862 -5.13205 -0.410412 0.488379 -5.13203 -0.440656 0.461274 -5.13582 -0.55773 0.309658 -5.1356 -0.501826 0.393856 8.60217 -4.94933 -1.84437 8.65548 -6.54826 -2.29057 -0.0 0.0 -0.0 7.78916 -9.66321 15.0741 81.1857 67.3464 24.4642 0.199974 -5.65747 0.00988088 49.1614 -0.909432 -6.02387 -2.43818 28.7356 -1.93635 -0.0 0.0 -0.0 9.23479 28.0304 -16.9335 1.02092 1.60901 -61.084 0.206513 5.84122 -0.010536 58.6909 1.65878 6.98586 -1.00159 6.57296 9.59122 0.0 0.0 0.0 -17.5636 -10.0498 -0.379748 -14.3285 0.320076 2.16987 31.0683 -3.17566 -4.05297 4.20305 -0.0 -0.0 -0.0 0.0 -0.0 20.4806 -1.89407 7.73408 -11.7144 -0.302352 -1.76921 -10.3215 -10.2401 -1.53998 22.4794 -0.0 -0.0 0.0 0.0 0.0 
1363.59082252 702.52 -1491.2881953 17.4387447139 69.4413713707 -18.1223625633 -5.13205 -0.410412 0.488379 -5.13203 -0.440656 0.461274 -5.13582 -0.55773 0.309658 -5.1356 -0.501826 0.393856 8.60217 -4.94933 -1.84437 8.65548 -6.54826 -2.29057 -0.0 0.0 -0.0 7.78916 -9.66321 15.0741 81.1857 67.3464 24.4642 0.199974 -5.65747 0.00988088 49.1614 -0.909432 -6.02387 -2.43818 28.7356 -1.93635 -0.0 0.0 -0.0 9.23479 28.0304 -16.9335 1.02092 1.60901 -61.084 0.206513 5.84122 -0.010536 58.6909 1.65878 6.98586 -1.00159 6.57296 9.59122 0.0 0.0 0.0 -17.5636 -10.0498 -0.379748 -14.3285 0.320076 2.16987 31.0683 -3.17566 -4.05297 4.20305 -0.0 -0.0 -0.0 0.0 -0.0 20.4806 -1.89407 7.73408 -11.7144 -0.302352 -1.76921 -10.3215 -10.2401 -1.53998 22.4794 -0.0 -0.0 0.0 0.0 0.0 
1363.62965174 702.52 -1491.30857729 17.3289030681 69.3093223912 -18.0049989323 -5.13205 -0.410412 0.488379 -5.13203 -0.440656 0.461274 -5.13582 -0.55773 0.309658 -5.1356 -0.501826 0.393856 8.60217 -4.94933 -1.84437 8.65548 -6.54826 -2.29057 -0.0 0.0 -0.0 7.78916 -9.66321 15.0741 81.1857 67.3464 24.4642 0.199974 -5.65747 0.00988088 49.1614 -0.909432 -6.02387 -2.43818 28.7356 -1.93635 -0.0 0.0 -0.0 9.23479 28.0304 -16.9335 1.02092 1.60901 -61.084 0.206513 5.84122 -0.010536 58.6909 1.65878 6.98586 -1.00159 6.57296 9.59122 0.0 0.0 0.0 -17.5636 -10.0498 -0.379748 -14.3285 0.320076 2.16987 31.0683 -3.17566 -4.05297 4.20305 -0.0 -0.0 -0.0 0.0 -0.0 20.4806 -1.89407 7.73408 -11.7144 -0.302352 -1.76921 -10.3215 -10.2401 -1.53998 22.4794 -0.0 -0.0 0.0 0.0 0.0 
1352.08371379 703.494 -1499.33123888 17.8005137547 69.7161224453 -18.7447094581 -5.32948 -0.282053 0.421347 -5.32943 -0.308292 0.402546 -5.33169 -0.414895 0.291461 -5.33163 -0.363658 0.353328 9.24931 -5.22627 -1.22187 9.32463 -7.51468 -1.53401 -0.0 0.0 -0.0 7.95119 -8.15958 15.4591 79.4634 67.2451 25.2472 0.1996 -5.64696 0.00984411 48.2089 -0.843587 -5.92122 -2.46138 28.8907 -1.98122 -0.0 0.0 -0.0 8.74062 26.8814 -15.9672 0.925786 2.11922 -61.2317 0.244162 6.89663 -0.0147125 60.8637 1.85143 7.18703 -1.18292 3.87134 9.64516 0.0 0.0 0.0 -17.742 -9.24892 0.0597291 -14.1868 0.319584 2.14814 33.0348 -0.573412 -4.22966 5.00436 -0.0 -0.0 -0.0 0.0 -0.0 19.5168 -1.31117 7.84837 -11.3434 -0.298356 -1.71244 -11.6079 -11.2421 -1.73574 22.0975 -0.0 -0.0 0.0 0.0 0.0 
1332.80434189 706.094 -1511.40365133 17.2856039809 72.7557716527 -19.6439434364 -5.42958 -0.325193 0.34298 -5.42958 -0.346359 0.321592 -5.43169 -0.427263 0.202069 -5.43153 -0.389987 0.267012 11.2841 -5.18007 -0.502401 11.3831 -7.91903 -0.603725 -0.0 0.0 -0.0 8.12663 -5.59545 15.8689 74.6914 66.7973 28.5098 0.199584 -5.64651 0.00984253 46.2018 -0.710509 -5.70149 -2.1964 28.7918 -0.609401 -0.0 0.0 -0.0 7.24743 27.0223 -12.6629 -1.20663 2.4405 -63.2519 0.405089 11.347 -0.0402442 61.9511 1.95068 7.28495 -0.729292 4.49171 6.83042 0.0 0.0 0.0 -17.8806 -10.4595 0.0572873 -12.9849 0.31325 1.96384 33.3474 -1.02705 -4.26491 5.85563 -0.0 -0.0 -0.0 0.0 -0.0 20.6884 -4.4968 9.96535 -13.3546 -0.31561 -2.02051 -9.75631 -12.3133 -1.45695 24.0747 -0.0 -0.0 0.0 0.0 0.0 
1333.31284322 706.094 -1511.94752358 16.5535650428 71.991169986 -18.8758607478 -5.42958 -0.325193 0.34298 -5.42958 -0.346359 0.321592 -5.43169 -0.427263 0.202069 -5.43153 -0.389987 0.267012 11.2841 -5.18007 -0.502401 11.3831 -7.91903 -0.603725 -0.0 0.0 -0.0 8.12663 -5.59545 15.8689 74.6914 66.7973 28.5098 0.199584 -5.64651 0.00984253 46.2018 -0.710509 -5.70149 -2.1964 28.7918 -0.609401 -0.0 0.0 -0.0 7.24743 27.0223 -12.6629 -1.20663 2.4405 -63.2519 0.405089 11.347 -0.0402442 61.9511 1.95068 7.28495 -0.729292 4.49171 6.83042 0.0 0.0 0.0 -17.8806 -10.4595 0.0572873 -12.9849 0.31325 1.96384 33.3474 -1.02705 -4.26491 5.85563 -0.0 -0.0 -0.0 0.0 -0.0 20.6884 -4.4968 9.96535 -13.3546 -0.31561 -2.02051 -9.75631 -12.3133 -1.45695 24.0747 -0.0 -0.0 0.0 0.0 0.0 
1334.09353516 706.094 -1512.75378586 15.5626806826 70.8334960758 -17.8305006726 -5.42958 -0.325193 0.34298 -5.42958 -0.346359 0.321592 -5.43169 -0.427263 0.202069 -5.43153 -0.389987 0.267012 11.2841 -5.18007 -0.502401 11.3831 -7.91903 -0.603725 -0.0 0.0 -0.0 8.12663 -5.59545 15.8689 74.6914 66.7973 28.5098 0.199584 -5.64651 0.00984253 46.2018 -0.710509 -5.70149 -2.1964 28.7918 -0.609401 -0.0 0.0 -0.0 7.24743 27.0223 -12.6629 -1.20663 2.4405 -63.2519 0.405089 11.347 -0.0402442 61.9511 1.95068 7.28495 -0.729292 4.49171 6.83042 0.0 0.0 0.0 -17.8806 -10.4595 0.0572873 -12.9849 0.31325 1.96384 33.3474 -1.02705 -4.26491 5.85563 -0.0 -0.0 -0.0 0.0 -0.0 20.6884 -4.4968 9.96535 -13.3546 -0.31561 -2.02051 -9.75631 -12.3133 -1.45695 24.0747 -0.0 -0.0 0.0 0.0 0.0 
1335.25611051 706.094 -1513.89412572 14.3248553152 69.1445128759 -16.5132922633 -5.42958 -0.325193 0.34298 -5.42958 -0.346359 0.321592 -5.43169 -0.427263 0.202069 -5.43153 -0.389987 0.267012 11.2841 -5.18007 -0.502401 11.3831 -7.91903 -0.603725 -0.0 0.0 -0.0 8.12663 -5.59545 15.8689 74.6914 66.7973 28.5098 0.199584 -5.64651 0.00984253 46.2018 -0.710509 -5.70149 -2.1964 28.7918 -0.609401 -0.0 0.0 -0.0 7.24743 27.0223 -12.6629 -1.20663 2.4405 -63.2519 0.405089 11.347 -0.0402442 61.9511 1.95068 7.28495 -0.729292 4.49171 6.83042 0.0 0.0 0.0 -17.8806 -10.4595 0.0572873 -12.9849 0.31325 1.96384 33.3474 -1.02705 -4.26491 5.85563 -0.0 -0.0 -0.0 0.0 -0.0 20.6884 -4.4968 9.96535 -13.3546 -0.31561 -2.02051 -9.75631 -12.3133 -1.45695 24.0747 -0.0 -0.0 0.0 0.0 0.0 
1295.02150798 711.378 -1532.09423387 12.6052690555 65.9109544755 -16.7631478746 -5.20233 0.240474 0.953959 -5.20184 0.179286 0.967326 -5.19775 -0.117004 0.976817 -5.19908 0.038727 0.983036 14.666 -4.12755 0.611931 14.7724 -7.02693 0.887426 -0.0 0.0 -0.0 9.76899 -5.84544 19.3396 76.9833 62.9942 15.9008 0.326679 -9.19251 0.0262625 40.3055 -0.365248 -5.03111 -3.24236 28.1316 -6.62013 -0.0 0.0 -0.0 8.73501 27.2331 -15.9163 4.65296 -2.75268 -59.9521 0.471221 13.1394 -0.0542701 61.4519 1.90488 7.24023 0.208895 2.15496 -0.491217 0.0 0.0 0.0 -14.3406 -6.35841 2.75349 -21.3463 0.277209 3.24512 34.9751 0.049933 -4.41638 6.6568 -0.0 -0.0 -0.0 0.0 -0.0 17.885 2.65497 9.75192 -13.8341 -0.318126 -2.09404 -9.44169 -14.4227 -1.41362 23.2098 -0.0 -0.0 0.0 0.0 0.0 
1227.54258347 714.663 -1547.71946822 18.6727885584 69.850027636 -24.5271468751 -4.97437 0.342183 1.00159 -4.97386 0.277759 1.02134 -4.96768 -0.0348276 1.05785 -4.96922 0.132668 1.05008 10.625 -2.6123 3.51874 10.7964 -7.49551 4.33019 -0.0 0.0 -0.0 6.39847 12.053 12.2426 38.5508 56.1611 46.7451 0.26621 -7.51258 0.0174777 29.0816 0.0938249 -3.67416 -2.53259 22.8001 -5.54115 -0.0 0.0 -0.0 6.79148 28.8159 -11.4676 6.74596 1.93289 -61.0541 0.677561 18.5541 -0.110677 67.5803 2.49323 7.76089 0.637303 -2.09787 -5.11866 0.0 0.0 0.0 -10.2237 -4.46488 5.70687 -37.6504 -0.324094 5.66653 35.7189 3.5859 -4.47014 13.2449 -0.0 -0.0 -0.0 0.0 -0.0 14.8322 -3.73009 12.0584 -14.6965 -0.321103 -2.22632 -4.0056 -10.43 -0.591614 25.6624 -0.0 -0.0 0.0 0.0 0.0 
1202.7091704 714.594 -1554.04932597 22.9407282303 71.1211965668 -29.0842347737 -4.9116 0.314207 1.16431 -4.91088 0.239487 1.18195 -4.90439 -0.11732 1.20024 -4.90639 0.0736935 1.20371 9.50464 -2.37873 4.33321 9.70586 -7.87213 5.23876 -0.0 0.0 -0.0 5.89701 15.4253 11.2765 35.242 53.5878 47.7261 0.226017 -6.38851 0.0126136 27.8681 0.12731 -3.52277 -2.10499 22.1091 -3.40796 -0.0 0.0 -0.0 6.3804 29.2264 -10.5237 8.13272 4.76244 -60.2373 0.695427 19.0086 -0.11643 70.0897 2.74968 7.95553 0.77949 -1.9449 -6.00533 0.0 0.0 0.0 -7.7181 -4.35282 7.05216 -41.4855 -0.563969 6.20497 33.1362 3.80104 -4.21645 14.1741 -0.0 -0.0 -0.0 0.0 -0.0 13.9029 -6.54209 13.4075 -17.2079 -0.318428 -2.6116 -1.04105 -10.8141 -0.152847 27.4486 -0.0 -0.0 0.0 0.0 0.0 
1156.13553729 717.118 -1576.0869011 34.8949008354 72.9952576619 -38.3199736782 -4.83282 0.22699 0.946813 -4.83234 0.166285 0.959337 -4.82856 -0.120814 0.966116 -4.82987 0.0332749 0.973071 6.8059 -2.75601 2.59906 6.91247 -6.96727 2.95503 -0.0 0.0 -0.0 4.2016 21.038 8.5234 30.4199 49.0947 50.8416 0.198217 -5.60808 0.00970845 25.9791 0.17303 -3.2858 -0.0943392 13.3035 4.87518 -0.0 0.0 -0.0 6.72379 28.8272 -11.3184 10.509 6.3691 -59.4467 0.738681 20.0986 -0.130907 72.6939 3.02459 8.14549 0.325295 -2.96896 -3.40064 0.0 0.0 0.0 -2.59765 -13.7118 8.79227 -49.8865 -1.2123 7.32208 33.0307 9.35946 -4.21135 10.785 -0.0 -0.0 -0.0 0.0 -0.0 8.23553 -13.2348 10.524 -18.1485 -0.31308 -2.75582 5.17639 -4.92591 0.748395 27.4474 -0.0 -0.0 0.0 0.0 0.0 
